<svg xmlns="http://www.w3.org/2000/svg" xmlns:xlink="http://www.w3.org/1999/xlink" width="75" height="75" viewBox="0 0 75 75"><defs><clipPath id="a"><rect width="75" height="75"/></clipPath><clipPath id="b"><rect width="28.446" height="38.853" fill="none"/></clipPath></defs><g clip-path="url(#a)"><g transform="translate(7.5 3)"><g transform="translate(15.471 13.273)"><g clip-path="url(#b)"><path d="M50.206,38.015a24.126,24.126,0,0,0-2.578-4.332l1.593.711-.882-1.587a70.951,70.951,0,0,0,1.05-8.407c-.4-4.516-1.971-5.74-1.971-5.74a52.071,52.071,0,0,0-6.99,8.461l.234-1.507-.981.7s-2.49-.106-3.707-.106-3.706.106-3.706.106l-.981-.7.234,1.507a52.071,52.071,0,0,0-6.993-8.46s-1.579,1.224-1.971,5.741a70.951,70.951,0,0,0,1.05,8.408L22.727,34.4l1.593-.711a24.126,24.126,0,0,0-2.576,4.332,20.925,20.925,0,0,0,2.54-.918s-1.85,1.515-2.49,1.964a40.2,40.2,0,0,1,2.454,9.311s1.465-.15,2.6-.15a5.047,5.047,0,0,0-1.743,1.1,10.474,10.474,0,0,1,3.45.392,42.52,42.52,0,0,0,2.973,5.357l.7,1.564a8.5,8.5,0,0,0,7.512,0l.693-1.572A43.209,43.209,0,0,0,43.4,49.709a10.474,10.474,0,0,1,3.45-.392,5.061,5.061,0,0,0-1.736-1.1c1.123,0,2.589.15,2.589.15a40.091,40.091,0,0,1,2.454-9.311c-.641-.441-2.49-1.963-2.49-1.963a23.252,23.252,0,0,0,2.538.924Zm-11.09,17.87a10.988,10.988,0,0,1-3.136.568,10.987,10.987,0,0,1-3.136-.569L32.5,54.712a13.2,13.2,0,0,0,3.479.363,13.2,13.2,0,0,0,3.479-.363ZM34.222,50.3a6.5,6.5,0,0,1-.3.732l-.22.121a3.943,3.943,0,0,1-.433-.726,12.8,12.8,0,0,1,.812-1.294s1.2.049,1.914.049,1.914-.049,1.914-.049a12.8,12.8,0,0,1,.812,1.294,3.722,3.722,0,0,1-.434.726l-.221-.122a6.5,6.5,0,0,1-.3-.732,1.828,1.828,0,0,0-.7.3,2.9,2.9,0,0,0,.15.952,3.29,3.29,0,0,0,.348.22,7.433,7.433,0,0,1-1.551.4,7.432,7.432,0,0,1-1.551-.4c.2-.114.348-.22.348-.22.128-.114.15-.952.15-.952a1.829,1.829,0,0,0-.7-.3ZM48.827,39.488c-.8,2.355-2.924,7.54-2.924,7.54a19.933,19.933,0,0,0-.013-2.27,16.859,16.859,0,0,1-3.213,3.827c-1.082-3.969-2.361-7.547-2.361-7.547a2.7,2.7,0,0,0,2.055-.534A2.494,2.494,0,0,0,43.4,38.456c.96.05,1.707.065,1.707.065a20.265,20.265,0,0,0-3.115-.9l-.078-1.38s-1.31,2.462-2.482,4.51a85.08,85.08,0,0,1,2.205,9.93,25.682,25.682,0,0,1-1.984,3.429,4.852,4.852,0,0,1-2.625-1.258,8.529,8.529,0,0,0,1.173-.768,19.885,19.885,0,0,1,1.331-1.65,7.562,7.562,0,0,0-1.593-2.14s-1.061.013-1.95.013-1.95-.014-1.95-.014a7.35,7.35,0,0,0-1.65,2.141,16.914,16.914,0,0,1,1.394,1.65,8.764,8.764,0,0,0,1.173.768,4.791,4.791,0,0,1-2.625,1.259,24.827,24.827,0,0,1-1.985-3.429,86.7,86.7,0,0,1,2.205-9.93c-1.173-2.049-2.483-4.51-2.483-4.51l-.078,1.38a20.038,20.038,0,0,0-3.108.9s.75-.014,1.7-.064a2.516,2.516,0,0,0,1.032,2.049,2.7,2.7,0,0,0,2.055.534s-1.281,3.577-2.361,7.546A16.686,16.686,0,0,1,26.1,44.759a19.875,19.875,0,0,0-.014,2.269s-2.119-5.185-2.924-7.54a11.585,11.585,0,0,1,6-4.35,13.311,13.311,0,0,0,2.6.2,15.917,15.917,0,0,1-2.6-1.287,19.247,19.247,0,0,0-5.691,2.731,17.1,17.1,0,0,1,4.047-5.061,9.477,9.477,0,0,0-2.4.519,4.443,4.443,0,0,1,.505-1.835,3.516,3.516,0,0,0-1.167,1.259,49.375,49.375,0,0,1-1.017-7.448,12.4,12.4,0,0,1,1.117-4.368s2.2,2.952,3.521,4.815,2.791,3.807,2.791,3.807-.262.555-.548,1.287a15.354,15.354,0,0,1,1.465-.711s.54-1.167.854-1.686c0,0,2.063-.234,3.343-.234s3.343.234,3.343.234c.313.519.854,1.686.854,1.686a15.351,15.351,0,0,1,1.466.711c-.291-.732-.548-1.287-.548-1.287s1.466-1.95,2.789-3.806,3.521-4.815,3.521-4.815a12.435,12.435,0,0,1,1.117,4.368,50.317,50.317,0,0,1-1.017,7.448,3.516,3.516,0,0,0-1.167-1.258,4.443,4.443,0,0,1,.506,1.834,9.475,9.475,0,0,0-2.4-.519,17.1,17.1,0,0,1,4.062,5.064,19.246,19.246,0,0,0-5.691-2.733,15.332,15.332,0,0,1-2.6,1.287,13.313,13.313,0,0,0,2.6-.2,11.584,11.584,0,0,1,6,4.35Zm-6.615-1.11c.213.021.434.036.648.049a2.422,2.422,0,0,1-.8,1.437,1.914,1.914,0,0,1-1.331.45c.114-.2.213-.392.313-.562a1.181,1.181,0,0,0,1.167-1.373Zm-11.3,1.372c.093.171.2.355.313.563a1.9,1.9,0,0,1-1.33-.45,2.422,2.422,0,0,1-.8-1.437c.213-.014.434-.029.648-.05a1.18,1.18,0,0,0,1.167,1.372" transform="translate(-21.753 -18.66)"/></g><path d="M45.12,45.19l-.89-2.07s0,.1.013.27c.042.719.164,2.7.42,4.182,0,0,1.2-2.4,1.828-3.343a5.217,5.217,0,0,0-1.38.952" transform="translate(-28.24 -25.722)"/><path d="M53.09,30.073s.939-3.079,1.65-5.883l-.036.078c-.249.576-1.829,4.239-3.279,6.8,0,0,1.878-.234,3.279-.249a7.691,7.691,0,0,0-1.621-.75" transform="translate(-30.32 -20.257)"/><path d="M36.077,44.229c.633.952,1.828,3.343,1.828,3.343a40.3,40.3,0,0,0,.42-4.182c.014-.171.014-.27.014-.27l-.89,2.068a5.217,5.217,0,0,0-1.38-.952" transform="translate(-25.883 -25.721)"/><path d="M27.412,24.19c.719,2.8,1.65,5.883,1.65,5.883a7.69,7.69,0,0,0-1.621.75c1.4.014,3.279.249,3.279.249-1.458-2.561-3.037-6.223-3.279-6.8-.021-.049-.036-.078-.036-.078" transform="translate(-23.387 -20.257)"/></g><path d="M44.408,5.221A27.8,27.8,0,0,1,29.606,0,27.8,27.8,0,0,1,14.8,5.221C6.857,5.4,1.878,3.478,0,2.212V23.24A68.216,68.216,0,0,0,2,39.066a28.639,28.639,0,0,0,1.855,5.392,45.963,45.963,0,0,0,4.61,7.811,40.744,40.744,0,0,0,21.15,15.478,40.744,40.744,0,0,0,21.15-15.478,46.92,46.92,0,0,0,4.609-7.811,29.308,29.308,0,0,0,1.857-5.392A68.953,68.953,0,0,0,59.223,23.24c0-.184,0-.37,0-.555V2.212c-1.878,1.266-6.856,3.194-14.8,3.009Zm7.426,39.237a48.693,48.693,0,0,1-3.663,5.933A37.814,37.814,0,0,1,29.606,64.454,37.887,37.887,0,0,1,11.04,50.389a47.628,47.628,0,0,1-3.663-5.932C3.286,37.2,3.159,25.87,3.186,23.24V6.957A36.655,36.655,0,0,0,13.764,8.373H14.9A29.29,29.29,0,0,0,29.606,3.763a29.338,29.338,0,0,0,14.71,4.609H45.45A36.45,36.45,0,0,0,56.028,6.957V23.232c.028,2.632-.106,13.95-4.189,21.219Z" transform="translate(0 0)"/></g></g></svg>