<svg xmlns="http://www.w3.org/2000/svg" width="32.878" height="38" viewBox="0 0 32.878 38">
  <path id="tiktok-white" d="M29.763,10A1.264,1.264,0,0,0,28.5,11.261s-.014,6.162-.027,12.338c-.007,3.088-.015,6.179-.02,8.506s-.007,3.8-.007,3.923A4.383,4.383,0,0,1,23.987,40.2a4.237,4.237,0,0,1,0-8.474c.08,0,.241.026.516.059a1.264,1.264,0,0,0,1.414-1.257v-5.31a1.264,1.264,0,0,0-1.185-1.261c-.2-.012-.445-.037-.745-.037A12.041,12.041,0,1,0,36.028,35.959V24.522a10.628,10.628,0,0,0,6.66,2.4c.345,0,.673-.02.987-.049a1.264,1.264,0,0,0,1.148-1.259v-5.9a1.264,1.264,0,0,0-1.172-1.261,8.188,8.188,0,0,1-7.556-7.319A1.264,1.264,0,0,0,34.838,10Zm1.261,2.528h2.883A10.553,10.553,0,0,0,42.3,20.674v3.621a8.165,8.165,0,0,1-6.475-3.611,1.264,1.264,0,0,0-2.32.7V35.959a9.514,9.514,0,1,1-10.111-9.393v2.75a6.716,6.716,0,0,0,.6,13.409,6.891,6.891,0,0,0,6.986-6.7c0,.062,0-1.59.007-3.918s.013-5.418.02-8.506C31.012,18.059,31.022,13.6,31.024,12.528Z" transform="translate(-11.945 -10)" fill="#fff"/>
</svg>
