<?xml version="1.0" encoding="UTF-8"?>
<svg id="Ebene_1" data-name="Ebene 1" xmlns="http://www.w3.org/2000/svg" viewBox="0 0 206.7 161.68">
  <defs>
    <style>
      .cls-1 {
        fill: none;
        stroke: #eab527;
        stroke-miterlimit: 4;
        stroke-width: 1.04px;
      }
    </style>
  </defs>
  <path d="M14.72,84.28h1.17c1.17,0,2.04-.31,2.62-.93.57-.63.86-1.61.86-2.94,0-1.25-.28-2.14-.82-2.67-.54-.53-1.44-.8-2.69-.8h-1.13v7.35ZM14.72,76.47h1.01c1.05,0,1.8-.24,2.27-.73.46-.48.69-1.33.69-2.54s-.21-2.14-.64-2.67c-.42-.54-1.11-.8-2.06-.8h-1.27v6.74ZM10.01,84.75v-.24l.41-.16c.32-.12.54-.28.65-.47.11-.19.17-.44.17-.75v-12.25c0-.33-.06-.58-.17-.77-.12-.19-.33-.34-.65-.44l-.41-.16v-.24h6.73c1.91,0,3.28.35,4.12,1.04.85.69,1.27,1.58,1.27,2.65,0,.8-.31,1.52-.92,2.17-.62.65-1.68,1.1-3.18,1.37,1.72.19,2.98.64,3.78,1.36.8.71,1.19,1.57,1.19,2.58,0,.5-.11,1.01-.33,1.52-.22.51-.59.97-1.12,1.4-.52.42-1.24.76-2.15,1.02-.91.25-2.05.38-3.44.38h-5.96Z"/>
  <path d="M26.6,84.75v-.24l.49-.18c.33-.12.53-.27.62-.46.09-.18.13-.43.13-.74v-12.25c0-.31-.05-.56-.14-.75-.09-.19-.3-.34-.61-.44l-.49-.18v-.24h5.98v.24l-.42.18c-.3.11-.5.26-.61.46-.11.19-.16.45-.16.76v13.38h3.61c.58,0,1-.14,1.27-.42.27-.28.54-.69.79-1.23l.91-1.96h.24l-.22,4.08h-11.39Z"/>
  <path d="M45.06,79.22h4.9l-2.38-7.3-2.53,7.3ZM41.49,84.75v-.24l.59-.21c.32-.12.56-.27.73-.46.17-.18.31-.44.42-.77l4.84-13.86h1.99l4.76,13.96c.13.35.27.61.42.79.16.17.4.33.73.46l.28.09v.24h-5.96v-.24l.35-.11c.33-.13.53-.31.6-.53.07-.22.06-.49-.03-.81l-1.1-3.38h-5.21l-1.13,3.31c-.11.34-.15.62-.11.82.04.2.23.37.55.49l.52.21v.24h-3.24Z"/>
  <path d="M67.69,85.17c-1.51,0-2.88-.31-4.11-.92-1.23-.62-2.21-1.54-2.93-2.76-.72-1.22-1.07-2.72-1.07-4.48,0-1.35.22-2.52.65-3.54.44-1.02,1.04-1.87,1.8-2.56.76-.69,1.63-1.21,2.63-1.55,1-.35,2.05-.52,3.16-.52.89,0,1.71.1,2.46.3.75.2,1.46.49,2.12.85l.09,2.89h-.23l-1.17-1.88c-.16-.3-.33-.56-.52-.8-.19-.24-.42-.43-.71-.55-.23-.11-.46-.19-.69-.25-.22-.06-.51-.09-.85-.09-.91,0-1.74.24-2.49.73-.74.49-1.33,1.29-1.78,2.41-.45,1.12-.67,2.65-.67,4.59s.21,3.45.63,4.57c.43,1.12,1,1.91,1.73,2.39.73.48,1.55.72,2.46.72.5,0,.9-.04,1.19-.11.3-.07.59-.18.89-.32.3-.13.52-.31.67-.55.16-.24.3-.51.43-.78l1.03-2.3h.23l-.06,3.35c-.66.34-1.4.62-2.21.84-.81.22-1.7.34-2.67.34"/>
  <path d="M84.98,84.75v-.24l.3-.09c.32-.09.48-.25.5-.47.01-.22-.08-.48-.28-.76l-4.5-6.4,5.94-6.06c.22-.22.34-.43.36-.63.03-.2-.12-.36-.46-.47l-.4-.14v-.24h3.43v.24l-.61.18c-.35.11-.62.24-.82.4-.2.15-.44.36-.71.63l-4.2,4.3,5.51,8.04c.24.35.46.63.67.85.21.22.51.39.9.52l.33.09v.24h-5.96ZM76.33,84.75v-.24l.49-.18c.31-.11.51-.25.61-.44.09-.19.14-.43.14-.73v-12.27c0-.31-.05-.56-.14-.75-.09-.19-.3-.34-.61-.44l-.49-.18v-.24h5.84v.24l-.52.21c-.26.09-.44.24-.53.42-.1.19-.14.44-.14.77v12.27c0,.31.05.55.15.73.1.17.3.31.6.42l.44.18v.24h-5.84Z"/>
  <path d="M101.9,84.75v-.24l.41-.14c.32-.11.53-.25.64-.44.11-.19.16-.44.16-.75.01-.94.02-1.88.02-2.83v-6.63c0-.95,0-1.89-.02-2.83,0-.31-.04-.56-.13-.75-.09-.19-.28-.34-.58-.44l-.51-.18v-.24h11.35l.16,3.9h-.24l-1.33-2.46c-.15-.3-.33-.53-.54-.71-.2-.17-.48-.26-.83-.26h-3.78c-.02,1.11-.03,2.25-.03,3.41v3.45h2.44c.36,0,.63-.08.8-.24.17-.16.34-.39.49-.68l.5-.89h.23v4.1h-.23l-.52-.89c-.16-.28-.32-.51-.49-.67-.16-.17-.42-.26-.78-.26h-2.44v3.14c0,.99.01,1.97.03,2.92,0,.61.3,1.01.89,1.19l.71.21v.24h-6.38Z"/>
  <path d="M124.41,84.69c.86,0,1.55-.23,2.08-.69.54-.46.92-1.25,1.16-2.36.24-1.12.37-2.66.37-4.61s-.12-3.52-.37-4.63c-.24-1.12-.63-1.91-1.16-2.38-.53-.46-1.22-.69-2.08-.69s-1.53.23-2.06.69c-.53.46-.92,1.26-1.16,2.38-.25,1.12-.37,2.66-.37,4.63s.12,3.49.37,4.61c.24,1.11.63,1.9,1.16,2.36.54.46,1.22.69,2.06.69M124.41,85.17c-.96,0-1.88-.17-2.76-.51-.89-.35-1.67-.86-2.37-1.54-.69-.68-1.25-1.53-1.66-2.54-.41-1.02-.61-2.21-.61-3.57s.2-2.52.61-3.54c.41-1.02.97-1.87,1.67-2.55.7-.69,1.49-1.2,2.38-1.55.89-.35,1.8-.53,2.74-.53s1.87.17,2.76.51c.88.33,1.67.84,2.37,1.52.7.68,1.25,1.53,1.66,2.56.4,1.02.61,2.21.61,3.58s-.2,2.5-.61,3.53c-.41,1.03-.96,1.88-1.66,2.56-.69.68-1.48,1.2-2.37,1.55-.88.35-1.8.52-2.76.52"/>
  <path d="M140.06,76.9h1.13c1.13,0,1.94-.3,2.44-.9.5-.61.75-1.5.75-2.69s-.24-2.1-.71-2.69c-.47-.59-1.26-.88-2.37-.88h-1.25v7.16ZM135.35,84.75v-.24l.49-.16c.31-.11.51-.25.61-.43.09-.18.14-.43.14-.76v-12.27c0-.31-.04-.56-.13-.74-.09-.18-.28-.33-.57-.43l-.53-.21v-.24h6.71c1.85,0,3.26.35,4.24,1.04.98.69,1.48,1.66,1.48,2.9,0,.69-.26,1.38-.77,2.07-.51.69-1.33,1.22-2.44,1.6l3.27,6.47c.14.27.3.49.48.65.18.16.42.3.72.43l.3.12v.21h-4.2l-3.47-7.39h-1.6v5.8c0,.3.05.54.14.73.09.19.29.33.59.42l.56.21v.24h-6Z"/>
  <path d="M152.64,84.75v-.24l.53-.21c.27-.11.45-.25.55-.43.1-.18.15-.43.15-.74v-12.25c0-.31-.04-.56-.13-.74-.09-.18-.28-.33-.57-.43l-.53-.21v-.24h11.23l.14,3.61h-.23l-1.01-2.2c-.15-.28-.3-.51-.46-.68-.15-.17-.38-.26-.69-.26h-4.23v6.78h2.52c.31,0,.55-.08.71-.24.16-.17.31-.39.44-.67l.47-.94h.24v4.22h-.24l-.47-.98c-.15-.28-.3-.5-.46-.67-.15-.17-.39-.25-.7-.25h-2.52v7.3h4.74c.31,0,.55-.08.73-.25.17-.17.31-.4.42-.69l.97-2.2h.23l-.14,3.61h-11.7Z"/>
  <path d="M173.25,85.17c-.86,0-1.74-.11-2.63-.31s-1.63-.49-2.23-.83l.12-3.19h.23l.73,1.52c.22.44.46.83.7,1.17.25.33.6.59,1.03.78.32.16.62.27.91.32.29.05.61.08.96.08.96,0,1.71-.25,2.27-.77.56-.52.84-1.19.84-2,0-.76-.19-1.36-.57-1.79-.38-.43-.98-.86-1.81-1.27l-.96-.41c-1.35-.6-2.4-1.29-3.16-2.06-.76-.77-1.14-1.8-1.14-3.08,0-.92.24-1.71.72-2.39.48-.67,1.14-1.19,2-1.55.85-.36,1.85-.54,2.98-.54.83,0,1.62.11,2.36.34.74.22,1.39.51,1.94.89l-.14,2.81h-.24l-.96-1.76c-.27-.55-.54-.94-.8-1.16-.26-.22-.57-.38-.91-.48-.2-.07-.39-.11-.56-.13-.17-.03-.39-.04-.65-.04-.8,0-1.48.23-2.03.69-.54.46-.81,1.08-.81,1.87s.21,1.43.63,1.91c.43.48,1.04.91,1.86,1.28l1.09.47c1.5.66,2.57,1.36,3.23,2.1.66.75.99,1.7.99,2.88,0,1.38-.52,2.5-1.56,3.36-1.04.87-2.52,1.3-4.43,1.3"/>
  <path d="M186.13,84.75v-.24l.97-.23c.64-.14.97-.53.97-1.17v-13.38h-2c-.58,0-1,.16-1.25.47-.25.3-.51.72-.79,1.25l-.85,1.64h-.24l.12-3.82h13.54l.09,3.82h-.23l-.85-1.64c-.27-.53-.53-.94-.78-1.25-.25-.31-.66-.47-1.24-.47h-2v13.38c0,.64.32,1.03.97,1.17l.96.23v.24h-7.39Z"/>
  <path d="M72.36,100.85c-.48,0-.97-.06-1.47-.18-.49-.11-.9-.27-1.23-.46l.06-1.77h.13l.4.85c.12.24.25.45.39.64.14.19.33.33.58.43.17.09.34.15.5.18.16.03.34.04.54.04.53,0,.94-.14,1.25-.42.31-.29.47-.66.47-1.12,0-.42-.11-.75-.31-.99-.21-.24-.54-.47-1-.69l-.53-.24c-.75-.33-1.33-.71-1.76-1.14-.42-.43-.63-.99-.63-1.7,0-.51.13-.95.39-1.32.27-.37.63-.66,1.11-.86.48-.2,1.03-.3,1.66-.3.46,0,.9.06,1.31.18.41.12.77.28,1.08.49l-.09,1.56h-.12l-.54-.98c-.15-.3-.29-.52-.44-.64-.15-.13-.31-.22-.5-.27-.12-.03-.22-.06-.31-.06-.1-.01-.21-.02-.36-.02-.44,0-.81.13-1.12.38-.3.26-.45.6-.45,1.03s.11.8.35,1.06c.23.26.58.5,1.03.71l.6.26c.83.37,1.43.76,1.79,1.17.36.41.54.93.54,1.58,0,.77-.29,1.39-.87,1.88-.57.48-1.39.72-2.44.72"/>
  <path d="M78.5,100.61v-.13l.3-.12c.14-.06.24-.13.3-.24.06-.1.09-.24.09-.41v-6.78c0-.17-.03-.31-.07-.41-.04-.1-.15-.18-.32-.24l-.3-.12v-.13h6.23l.08,2.01h-.13l-.55-1.23c-.08-.15-.16-.27-.25-.37-.09-.1-.22-.15-.39-.15h-2.33v3.76h1.39c.17,0,.3-.05.39-.14.09-.09.17-.22.24-.37l.26-.52h.13v2.34h-.13l-.26-.55c-.07-.15-.15-.27-.24-.37-.09-.09-.22-.14-.39-.14h-1.39v4.05h2.63c.17,0,.31-.04.4-.13.09-.09.17-.22.23-.39l.53-1.22h.13l-.08,2h-6.49Z"/>
  <path d="M92.36,100.85c-.84,0-1.6-.17-2.28-.51-.68-.35-1.22-.86-1.62-1.53-.4-.68-.6-1.51-.6-2.49,0-.74.12-1.4.36-1.96.24-.56.58-1.04,1-1.42.42-.38.9-.67,1.45-.86.55-.19,1.13-.28,1.75-.28.5,0,.96.06,1.37.17.42.11.81.26,1.17.46l.06,1.61h-.13l-.65-1.04c-.09-.17-.18-.31-.29-.44-.1-.14-.23-.24-.38-.31-.13-.06-.26-.1-.39-.13-.12-.03-.28-.04-.47-.04-.51,0-.97.14-1.38.4-.41.27-.74.71-.99,1.33-.25.61-.37,1.46-.37,2.54s.11,1.91.35,2.53c.24.62.56,1.07.95,1.33.4.26.86.39,1.37.39.27,0,.49-.02.65-.06.17-.04.33-.1.5-.18.17-.07.29-.17.38-.3.09-.14.17-.28.24-.43l.56-1.28h.13l-.03,1.87c-.37.19-.78.34-1.23.47-.45.12-.94.18-1.49.18"/>
  <path d="M102.02,100.85c-.66,0-1.24-.12-1.75-.35-.51-.24-.9-.61-1.18-1.12-.28-.51-.42-1.18-.42-2.01v-4.49c0-.32-.17-.54-.51-.65l-.28-.08v-.13h3.6v.13l-.38.11c-.32.08-.48.3-.48.65v4.8c0,.8.17,1.4.5,1.79.34.39.83.58,1.46.58s1.18-.2,1.56-.61c.38-.41.57-.99.57-1.74v-4.76c0-.17-.03-.33-.09-.47-.05-.14-.16-.23-.34-.27l-.33-.08v-.13h1.82v.13l-.36.1c-.17.03-.28.11-.33.24-.05.13-.08.28-.08.46v4.76c0,.63-.13,1.18-.38,1.66-.25.47-.6.84-1.05,1.1-.45.25-.98.38-1.58.38"/>
  <path d="M111.12,96.26h.63c.62,0,1.07-.17,1.35-.5.28-.34.42-.84.42-1.5s-.13-1.16-.39-1.49c-.26-.33-.7-.49-1.31-.49h-.69v3.97ZM108.51,100.61v-.13l.28-.09c.17-.06.27-.14.33-.24.06-.1.09-.24.09-.42v-6.8c0-.17-.03-.31-.08-.41-.04-.1-.15-.18-.32-.24l-.3-.12v-.13h3.72c1.02,0,1.8.2,2.34.59.55.38.83.92.83,1.61,0,.38-.15.76-.43,1.14-.28.39-.73.68-1.35.88l1.81,3.59c.07.15.16.27.26.36.1.09.23.17.4.24l.16.06v.12h-2.32l-1.92-4.09h-.89v3.21c0,.16.03.29.08.4.06.1.17.18.33.23l.31.12v.13h-3.33Z"/>
  <path d="M118.84,100.61v-.13l.26-.11c.17-.06.29-.13.35-.24.06-.11.09-.25.09-.42v-6.78c0-.17-.03-.31-.09-.41-.05-.11-.17-.19-.35-.25l-.26-.11v-.13h3.34v.13l-.26.11c-.17.06-.29.14-.35.25-.05.1-.08.24-.08.41v6.78c0,.17.02.31.08.41.06.1.17.18.35.25l.26.11v.13h-3.34Z"/>
  <path d="M126.67,100.61v-.13l.53-.13c.35-.08.53-.3.53-.65v-7.41h-1.11c-.32,0-.55.09-.68.26-.14.17-.29.4-.44.69l-.47.91h-.13l.07-2.13h7.5l.05,2.13h-.13l-.47-.91c-.15-.3-.29-.53-.43-.69-.14-.17-.37-.26-.68-.26h-1.11v7.41c0,.36.18.57.53.65l.53.13v.13h-4.09Z"/>
  <path d="M137.11,100.61v-.13l.39-.11c.3-.09.45-.3.45-.64v-2.47l-2.15-4.37c-.08-.17-.15-.3-.22-.39-.07-.09-.16-.16-.29-.22l-.23-.12v-.13h3.48v.13l-.24.1c-.19.07-.29.18-.31.31-.02.14.02.3.11.5l1.53,3.41,1.71-3.54c.07-.14.1-.28.09-.42-.02-.15-.11-.25-.28-.29l-.17-.07v-.13h1.55v.13l-.24.1c-.17.06-.29.14-.37.25-.08.11-.16.25-.23.41l-1.79,3.74v3.07c0,.17.03.3.1.41.07.11.18.19.35.23l.4.11v.13h-3.65Z"/>
  <path class="cls-1" d="M149.74,94.91h21.36M40.83,95.95h21.36"/>
  <path d="M143.79,116.13c-10.65,14.68-24.71,25.24-39.68,30.07-15.07-4.73-29.03-15.39-39.68-29.97-2.91-4.02-5.52-8.24-7.73-12.67h-7.63c10.65,22.83,30.84,42.83,55.05,49.67,18.08-5.13,33.85-17.6,45.2-33.08,3.82-5.23,7.13-10.86,9.84-16.69h-7.53c-2.31,4.42-4.92,8.65-7.83,12.67"/>
  <path d="M135.75,19.6c-15.47-.3-27.52-8.35-31.64-11.16-4.12,2.82-16.17,10.86-31.64,11.16-16.98.4-27.62-3.72-31.64-6.43v45.05h6.83V23.42c7.33,2.11,14.97,3.12,22.6,3.02h2.41c10.55-.3,21.3-3.72,31.44-9.95,10.15,6.23,20.89,9.65,31.44,9.85h2.41c7.63.1,15.27-.91,22.6-3.02v34.79h6.83V13.17c-4.02,2.71-14.67,6.84-31.64,6.43"/>
  <path d="M100.43,46.76c.07.13.15.27.23.42-.23.01-.63-.02-1-.34-.41-.35-.55-.81-.6-1.08.16-.01.33-.02.49-.03-.07.83.56,1,.88,1.03M108.92,45.73c.16.01.33.02.49.03-.05.27-.19.73-.6,1.08-.37.32-.77.35-1,.34.08-.15.16-.29.23-.42.32-.03.94-.2.88-1.03M113.88,46.56c-.6,1.77-2.19,5.66-2.19,5.66.05-.93-.01-1.7-.01-1.7-.64,1.29-2.41,2.87-2.41,2.87-.81-2.98-1.77-5.66-1.77-5.66,0,0,.73.17,1.54-.4.65-.46.76-1.12.78-1.54.72.04,1.28.05,1.28.05,0,0-1.16-.45-2.34-.67l-.06-1.03s-.98,1.85-1.86,3.38c0,0,1.28,4.46,1.66,7.45,0,0-.7,1.48-1.49,2.57,0,0-1.08-.1-1.97-.95.5-.27.88-.57.88-.57.38-.56,1-1.24,1-1.24-.27-.73-1.2-1.61-1.2-1.61,0,0-.8,0-1.47,0s-1.47,0-1.47,0c0,0-.98.88-1.24,1.61,0,0,.66.68,1.04,1.24,0,0,.38.31.88.57-.89.85-1.97.95-1.97.95-.79-1.09-1.49-2.57-1.49-2.57.38-2.99,1.66-7.45,1.66-7.45-.88-1.54-1.86-3.38-1.86-3.38l-.06,1.03c-1.18.22-2.34.67-2.34.67,0,0,.56,0,1.28-.05.02.42.12,1.08.78,1.54.81.57,1.54.4,1.54.4,0,0-.96,2.69-1.77,5.66,0,0-1.77-1.58-2.41-2.87,0,0-.06.77,0,1.7,0,0-1.59-3.89-2.19-5.66,0,0,1.73-2.57,4.51-3.26,0,0,1.13.2,1.96.15,0,0-1.45-.58-1.95-.97,0,0-2.39.64-4.27,2.05,0,0,1.18-2.35,3.05-3.8,0,0-1.07.09-1.8.39,0,0-.02-.54.38-1.38,0,0-.57.35-.88.95,0,0-.9-4.53-.76-5.59.13-1.06.4-2.67.84-3.28,0,0,1.65,2.22,2.64,3.61,1,1.39,2.09,2.86,2.09,2.86,0,0-.19.42-.41.97,0,0,.74-.41,1.1-.53,0,0,.4-.88.64-1.26,0,0,1.55-.18,2.51-.18s2.51.18,2.51.18c.24.39.64,1.26.64,1.26.36.13,1.1.53,1.1.53-.22-.55-.41-.97-.41-.97,0,0,1.1-1.46,2.09-2.86,1-1.4,2.64-3.61,2.64-3.61.44.61.71,2.22.84,3.28.13,1.06-.76,5.59-.76,5.59-.3-.6-.88-.95-.88-.95.4.83.38,1.38.38,1.38-.73-.3-1.8-.39-1.8-.39,1.86,1.45,3.05,3.8,3.05,3.8-1.88-1.4-4.27-2.05-4.27-2.05-.5.39-1.95.97-1.95.97.83.05,1.96-.15,1.96-.15,2.78.69,4.51,3.26,4.51,3.26M102.92,54.68c-.09.27-.23.55-.23.55l-.17.09c-.14-.2-.3-.44-.32-.54,0,0,.31-.57.61-.97,0,0,.9.04,1.44.04s1.43-.04,1.43-.04c.3.4.61.97.61.97-.03.1-.19.35-.33.54l-.17-.09s-.14-.28-.23-.55c0,0-.39.08-.53.23,0,0,.02.63.12.71,0,0,.11.08.26.17-.51.21-1.17.3-1.17.3,0,0-.66-.09-1.17-.3.15-.08.26-.17.26-.17.1-.09.12-.71.12-.71-.14-.15-.53-.23-.53-.23M106.59,58.88s-1.21.43-2.35.43-2.35-.43-2.35-.43l-.26-.88s.9.27,2.61.27,2.61-.27,2.61-.27l-.26.88ZM114.92,45.46c-.76-1.73-1.93-3.25-1.93-3.25l1.2.54-.66-1.19c.56-2.64.79-6.31.79-6.31-.3-3.39-1.48-4.31-1.48-4.31-2.74,2.5-5.25,6.35-5.25,6.35l.17-1.13-.74.53s-1.87-.08-2.78-.08-2.78.08-2.78.08l-.74-.53.17,1.13s-2.51-3.84-5.25-6.35c0,0-1.18.92-1.48,4.31,0,0,.23,3.67.79,6.31l-.66,1.19,1.2-.54s-1.17,1.52-1.93,3.25c0,0,.71-.19,1.91-.69,0,0-1.39,1.14-1.87,1.47,0,0,1.62,4.07,1.84,6.99,0,0,1.1-.11,1.95-.12,0,0-.61.18-1.31.83,0,0,1.39-.09,2.58.3,1.25,2.6,2.23,4.02,2.23,4.02l.52,1.17c.57.35,1.81.66,2.82.66s2.25-.3,2.82-.66l.52-1.17s.98-1.42,2.23-4.02c1.19-.39,2.58-.3,2.58-.3-.7-.65-1.31-.83-1.31-.83.84,0,1.94.12,1.94.12.22-2.92,1.84-6.99,1.84-6.99-.48-.33-1.87-1.47-1.87-1.47,1.19.5,1.91.69,1.91.69"/>
  <path d="M106.23,45.54l-.67-1.55s0,.07.01.2c.03.54.12,2.03.32,3.14,0,0,.9-1.8,1.37-2.51,0,0-.69.33-1.03.72"/>
  <path d="M110.65,38.3s.7-2.31,1.24-4.42c0,0,0,.02-.03.06-.18.43-1.37,3.18-2.46,5.11,0,0,1.41-.18,2.46-.19,0,0-.5-.33-1.22-.56"/>
  <path d="M101.21,44.83c.48.71,1.37,2.51,1.37,2.51.19-1.11.29-2.6.32-3.14,0-.13.01-.2.01-.2l-.67,1.55c-.35-.39-1.03-.72-1.03-.72"/>
  <path d="M96.58,33.89c.54,2.1,1.24,4.42,1.24,4.42-.71.23-1.22.56-1.22.56,1.05.01,2.46.19,2.46.19-1.09-1.92-2.28-4.67-2.46-5.1-.02-.04-.02-.06-.02-.06"/>
</svg>