<?xml version="1.0" encoding="utf-8"?>
<!-- Generator: Adobe Illustrator 27.8.1, SVG Export Plug-In . SVG Version: 6.00 Build 0)  -->
<svg version="1.1" id="Ebene_1" xmlns="http://www.w3.org/2000/svg" xmlns:xlink="http://www.w3.org/1999/xlink" x="0px" y="0px"
	 viewBox="0 0 708.7 589.6" style="enable-background:new 0 0 708.7 589.6;" xml:space="preserve">
<style type="text/css">
	.st0{fill:#ffffff;}
	.st1{fill:#FFFFFF;}
</style>
<path id="REITER" class="st0" d="M572.2,301.7c6.8,2.9,13.1,6.5,17.7,9c5.2,2.9,8,4.5,9.8,4.5c0.8,0,1.4-0.3,1.9-1
	c0.7-1,0.4-2,0.1-2.7l-0.1-0.4c-0.7-2.1-1-3.5-1.3-4.9c-0.1-0.7-0.3-1.4-0.5-2.2c-0.5-2-2-7-4.2-13.9c-4.4-14.3-11.1-35.9-15.2-52.4
	c-1.9-7.7-2.4-11.3-3.1-15.8c-0.8-5.2-1.8-11.7-5.2-27c-2.1-9.6-3.4-14.7-4.3-18.4c-1.1-4.5-1.7-6.8-2.6-12.6
	c-0.3-1.6-0.5-3.6-0.9-5.8c-1.1-7.5-2.7-19-5.4-32.9c-2.1-11-3.7-18.2-8-18.5c-2.1-0.1-3.1,1.3-5,3.9c-0.6,0.8-1.3,1.8-2.2,3.1
	c-2.7,3.6-4.4,5.3-5.8,6.8c-1.5,1.5-2.8,2.9-4.6,5.7c-2.4,3.6-3.7,6.5-6.2,12.2c-1.8,4-2.4,6-3.2,8.2c-0.6,1.8-1.3,3.8-2.7,7.2
	c-1.9,4.6-3.3,7.5-4.4,9.9c-1.7,3.6-2.8,5.9-3.8,10.5c-1,4.8-1.1,8.5-1.3,11.7c-0.2,5.4,0.3,8.3,0.7,11c0.4,2.3,0.7,4.5,0.7,8.2
	c0,5.8-0.8,12.2-2.4,18.3c-0.6,2.2-0.9,3.3-0.9,3.3c-1.6,5.1-2.5,7.9-3.1,9c-0.3,0.6-0.9,1.8-0.6,3.3c0.2,0.9,0.7,1.4,1.4,2
	c0.3,0.3,0.8,0.7,1.4,1.4c1.3,1.4,2.1,2,2.6,2.4c0.4,0.4,0.6,0.4,0.8,0.7c0.2,0.3,0.7,1.1,0.7,3.4c0,3.5-1,6.4-1.8,8.3l-0.2,0.5
	c-1,2.7-1.1,3.8-1.3,5.5c-0.2,1.6-0.4,3.7-1.6,8.7c-0.8,3.4-1.4,5.4-2,7c-0.6,2-1.2,3.6-1.7,6.8c-0.2,1.1-0.3,2-0.4,2.7
	c-0.2,1.6-0.3,2.3-0.9,3.6c-0.3,0.6-0.6,1.2-0.8,1.7c-0.9,1.7-1.8,3.4-1.1,5.5c0.2,0.7,0.9,2.3,2.6,3.2c1.8,0.9,3.5,0.2,5.2-0.4
	c0.3-0.1,0.5-0.2,0.8-0.3c0.9-0.3,1.9-0.5,2.9-0.8c0.9-0.2,1.8-0.4,2.7-0.7c5.4-1.7,19.8-6.1,29.6-6.5
	C553.4,293.6,559.7,296.3,572.2,301.7z M514.4,296.7c-0.8,0.2-1.5,0.4-2.4,0.6c-1.1,0.2-2.3,0.5-3.4,0.9c-0.3,0.1-0.6,0.2-0.9,0.3
	c-0.9,0.3-1.8,0.7-2.1,0.5c-0.3-0.1-0.5-0.5-0.5-0.8c-0.2-0.6,0.1-1.2,0.8-2.6c0.3-0.6,0.7-1.3,1-2c0.8-1.8,0.9-2.9,1.1-4.6
	c0.1-0.7,0.2-1.5,0.4-2.6c0.5-2.9,0.9-4.3,1.6-6.3c0.5-1.7,1.2-3.7,2-7.3c1.3-5.2,1.5-7.5,1.6-9.2c0.1-1.5,0.2-2.3,1-4.5l0.2-0.5
	c0.8-2,2.1-5.4,2-9.7c0-3.2-0.8-4.7-1.4-5.5c-0.5-0.8-1-1.2-1.6-1.7c-0.5-0.4-1.1-0.9-2.3-2.1c-0.7-0.7-1.2-1.2-1.6-1.5
	c-0.1,0-0.1-0.1-0.1-0.1c0.1-0.1,0.2-0.3,0.2-0.5c0.7-1.4,1.5-3.9,3.3-9.5c0-0.1,0.4-1.3,1-3.6c1.7-6.5,2.6-13.2,2.5-19.3
	c0-4.1-0.4-6.5-0.7-8.8c-0.4-2.7-0.8-5.2-0.6-10.3c0.1-3.1,0.2-6.6,1.2-11.1c0.9-4.1,1.9-6.2,3.5-9.6c1.2-2.4,2.6-5.4,4.5-10.1
	c1.4-3.5,2.1-5.6,2.7-7.4c0.8-2.2,1.4-4.1,3.1-7.9c2.4-5.5,3.6-8.3,5.9-11.6c1.7-2.6,2.8-3.7,4.2-5.2c1.4-1.5,3.2-3.4,6.1-7.2
	c0.9-1.3,1.7-2.3,2.3-3.1c0.7-0.9,1.3-1.8,1.7-2.2c1.7,1.5,3.6,11.4,4.3,15.2c2.6,13.9,4.3,25.2,5.3,32.8c0.3,2.3,0.6,4.2,0.9,5.9
	c0.9,5.9,1.5,8.4,2.7,12.9c0.9,3.7,2.2,8.7,4.3,18.3c3.3,15.2,4.3,21.6,5.1,26.8c0.7,4.6,1.3,8.3,3.2,16.1
	c4.1,16.7,10.8,38.3,15.2,52.6c2,6.6,3.7,11.8,4.1,13.7c0.2,0.7,0.3,1.3,0.4,2c0.2,1,0.4,2,0.7,3.4c-1.5-0.8-3.5-1.9-5.3-2.9
	c-4.7-2.6-11.1-6.2-18-9.2c-12.2-5.3-18.7-8.1-27.1-8.1c-0.6,0-1.1,0-1.7,0C534.7,290.5,519.9,295,514.4,296.7z M629.7,444
	c0,0,0.1,0.2,0.3,0.5c-0.1-0.8-0.1-2-0.2-3.9c0-0.9,0-1.5,0-2.1l0-0.4c0,0,0-3.2-0.1-9.5c0-1.7-0.1-2.4-0.6-7.3
	c-0.1-1.1-0.2-2.4-0.4-3.9h3.9c0.1,1.4,0.2,2.6,0.3,3.6c0.5,5,0.5,5.7,0.6,7.6c0.2,6.4,0.1,9.5,0.1,9.6l0,0.4c0,0.6,0,1.1,0,1.9
	c0.1,2.4,0.1,3.9,0.2,4.4l0,0.2c0.1,0.9,0.4,2.2-0.5,3.4c-0.2,0.2-1,1.2-2.5,1.3c0,0-0.1,0-0.1,0c-1.3,0-2.2-0.8-2.5-1.2
	c-1.6-1.5-2.1-2.7-2.2-2.9c-1-2.1-1.6-3.1-2.2-4c-1.1-1.7-2-3.3-4.4-9.8c-1.7-4.5-2.9-8.3-3.7-11.5c-0.3-1.3-0.5-2.2-0.7-2.9h4
	c0.1,0.5,0.3,1.2,0.5,2c0.3,1.1,1.2,4.6,3.6,11.1c2.3,6.2,3.1,7.5,4.1,9.1C627.9,440.6,628.6,441.7,629.7,444z M438.4,432.8
	c0.4,2.4,1,8.3-2.7,11.7c-1.6,1.5-3.3,1.7-6.2,2.1c-0.5,0.1-1.1,0.1-1.7,0.2c-1.9,0.3-3.9,0.7-5.8,1.1c-1.6,0.3-3.3,0.7-5,1
	c-7.9,1.3-15.3,2.5-21.5,7.2c-6,4.5-9,6.8-11.1,9.9l-0.1,0.1c-0.5,0.8-2.2,3.3-5.2,4.1c-0.8,0.2-2.2,0.6-3.6-0.2
	c-2.9-1.6-2.5-5.9-2.2-9.1c0.2-2.5,0.7-4.5,1.1-5.7c0.6-2,1.8-6.6,5.2-11.7c1.3-2,2.8-3.6,5.7-6.9c3.4-3.8,5-5.3,6.2-6.3
	c1-0.9,1.7-1.5,3.1-3.3l0.1-0.1c3.6-4.6,6.5-7.1,8.3-8.3l0.1-0.1c0.5-0.4,1-0.8,1.5-1.2h5.2c-1.2,1.7-2.9,3.3-4.4,4.4l-0.2,0.1
	c-1.6,1.1-4.2,3.2-7.4,7.5l-0.1,0.1c-1.6,2.1-2.5,2.9-3.6,3.8c-1.1,1-2.6,2.3-5.9,6c-2.8,3.1-4.2,4.7-5.3,6.5
	c-3,4.6-4.2,8.9-4.7,10.7c-0.3,1.1-0.7,2.8-0.9,5c-0.1,1.2-0.4,4.7,0.2,5.3c0.1,0,0.5-0.1,0.7-0.2c1.6-0.4,2.6-2,2.9-2.5l0.1-0.2
	c2.5-3.6,5.6-6,12-10.8c7-5.3,14.9-6.6,23.2-8c1.6-0.3,3.2-0.6,4.8-0.9c2-0.4,4-0.8,6.1-1.1c0.7-0.1,1.3-0.2,1.8-0.2
	c2.7-0.4,3.4-0.5,4.1-1.1c2.4-2.2,1.6-7.1,1.5-8.1c-0.2-1.2-0.5-1.7-1-2.6c-0.6-1.1-1.4-2.5-2.4-5.7l-0.1-0.2
	c-0.4-1.3-1.4-4.1-1.4-7.7h3.9c0,2.9,0.8,5.3,1.2,6.4l0.1,0.2c1,2.9,1.6,4.1,2.2,5.1C437.6,430.1,438.1,431,438.4,432.8z
	 M502.8,65.2c-2.1,4.1-6.4,9-14.8,18.7c-1.7,1.9-3.2,3.6-4.6,5.2c-5.9,6.6-8.6,9.6-9.5,15c-0.4,2.2-0.2,3.4,0,5
	c0.3,1.7,0.6,3.8,0.3,7.6c-0.3,5.1-1.6,8.4-2.8,11.6c-0.9,2.4-1.9,4.9-2.4,8.3c-1.1,6.3-1.2,10.7-1.3,14.9
	c-0.1,4.4-0.3,8.9-1.4,15.6c-0.5,2.7-2.4,9.3-6.2,22.6l-1,3.3c-3.6,12.3-5.4,18.5-4.5,26.8c0.4,3.5,1.1,6.9,2.3,10.3l0.7,2l-2.1,0.5
	c-10.2,2.5-12.7,3.8-12.9,3.9c-3.2,1.9-4.8,4.4-5.9,6c-0.9,1.4-2.1,3.1-4,2.5c-2.8-1-2.3-4.4-0.6-15.9c0.9-6.1,2.1-13.8,3-23.1
	c0-0.3,0.6-6.4,1-15.4c0.6-14.5-0.1-19-0.9-21.3c-0.2-0.5-0.3-0.9-0.4-1c-2-5-5.7-7.7-7.5-9c-10.1-7.3-26.1-10.2-26.3-10.3
	c-10.6-1.9-18.1-1.9-30.4-2c-0.2,0-21.6-0.2-39.9,3.2c-4,0.7-6.4,1.5-11.3,3c-0.1,0-4.9,1.6-11,5.4c-1.1,0.7-2,1.4-2.3,2.2
	c-0.3,1.1,0.6,2.4,1.6,3.8c0,0,1.4,1.9,6.3,6l3.5,2.9l-4.5,0.5c-0.2,0-2.3,0.3-4.6,0.5c-0.7,0.1-1.4,0.1-2.2,0.3
	c1.9,3,3.1,4.3,3.1,4.3c1.5,1.6,2.5,2.7,2.7,2.9c2.8,2.4,5.6,3.5,7.9,3c3.1-0.6,5.2-2.5,5.2-2.5l0.1-0.1c0.7-0.7,2.6-2.5,4.8-2
	c0.2,0,0.3,0.1,1.2,0.3l0.2,0.1c1.2,0.4,1.8,0.5,1.9,0.6c1,0.3,2.5,1.1,4.6,2.3c4.9,2.6,12.3,6.6,19.4,7.6c0.4,0,0.8,0.1,1.3,0.2
	c5.2,0.6,9,1.2,9.6,3.9c0.1,0.3,0.1,0.9,0.1,1.4c0,0.2,0,1.8-0.4,3.4c-0.7,2.5-3.6,5.4-6.1,7.9c-0.4,0.4-0.9,0.9-1.3,1.3
	c-0.8,0.8-1.5,1.6-2.3,2.5c-0.5,0.6-1,1.2-1.6,1.8c-7.2,7.9-16.2,17.7-21.7,25.4c-7.7,10.7-11,20.8-14,29.6
	c-1.2,3.7-2.1,6.8-2.9,9.8c-1.4,5.3-2.8,10.2-6.1,18.2c-2.7,6.5-4.1,9.7-6.3,13.8c-1.6,2.9-3,5-4.2,6.9c-2.2,3.4-3.7,5.7-4.6,9.4
	c-0.5,1.8-0.4,2.6-0.4,5.5c0,1.4,0,3.3,0,6c0,0,0,0.1,0,0.1h-3.9c0,0,0-0.1,0-0.1c0-2.7,0-4.6,0-5.9c0-3.1,0-4.2,0.5-6.5
	c1.1-4.4,2.9-7.1,5.1-10.6c1.2-1.8,2.5-3.9,4.1-6.7c2.2-3.9,3.5-7.1,6.1-13.4c3.2-7.7,4.6-12.6,6-17.7c0.8-3,1.7-6.2,3-10
	c3.1-9.1,6.5-19.5,14.5-30.7c5.6-7.8,14.7-17.8,22-25.7c0.5-0.6,1-1.1,1.5-1.7c0.8-0.9,1.6-1.8,2.5-2.7c0.4-0.4,0.8-0.8,1.3-1.3
	c1.9-1.8,4.7-4.6,5.1-6.1c0.3-1.1,0.3-2.3,0.3-2.3c0-0.1,0-0.3,0-0.4c-1.1-0.6-4.8-1-6.2-1.2c-0.5-0.1-1-0.1-1.4-0.2
	c-7.9-1-15.7-5.2-20.8-8c-1.7-0.9-3.3-1.8-4-2c-0.1,0-0.7-0.2-1.8-0.6l-0.2-0.1c-0.5-0.2-0.7-0.2-0.8-0.2c0,0-0.4,0.1-1.4,1
	l-0.1,0.1c0,0-2.8,2.7-7.2,3.5c-3.5,0.6-7.4-0.7-11.2-3.9c-0.2-0.2-0.6-0.6-3-3.2l0,0c-0.8-0.7-1.9-2.2-3.9-5.5
	c-0.3-0.4-1.1-1.7-0.5-3.2c0.5-1.3,1.7-1.8,3-2.1c1.3-0.3,2.3-0.4,3-0.5c0,0,0.1,0,0.1,0c-2.6-2.4-3.5-3.7-3.6-3.8
	c-1.2-1.8-2.8-4.1-2.1-6.9c0.6-2.5,2.7-3.9,4-4.7c6.5-4.1,11.6-5.8,11.9-5.9c5-1.6,7.6-2.4,11.8-3.2c18.7-3.4,40.5-3.3,40.7-3.3
	c12.6,0.1,20.2,0.2,31.1,2.1l0,0c2.4,0.4,17.7,3.5,27.9,10.9c1.9,1.4,6.4,4.7,8.8,10.6c0.1,0.2,0.3,0.7,0.5,1.3
	c0.9,2.7,1.7,7.6,1,22.7c-0.4,9.2-1,15.4-1,15.7c-1,9.4-2.2,17.5-3.1,23.3c-0.5,3.3-1,6.4-1.2,8.7c1.2-1.7,3.1-3.6,5.9-5.3l0,0.1
	c1.3-0.8,4.5-2,11.9-3.9c-0.9-3-1.5-6-1.9-9.1c-0.9-9.1,0.9-15.5,4.7-28.3l1-3.3c3.8-13.1,5.7-19.7,6.1-22.1
	c1.1-6.4,1.2-10.6,1.4-15c0.1-4.3,0.3-8.8,1.4-15.4c0.6-3.7,1.6-6.4,2.6-9c1.2-3.1,2.3-6,2.5-10.5c0.2-3.4-0.1-5.2-0.3-6.8
	c-0.3-1.7-0.5-3.4,0-6.2c1.1-6.4,4.4-10.1,10.4-16.9c1.3-1.5,2.8-3.2,4.5-5.1c8.2-9.5,12.3-14.2,14.3-17.9c3-5.6,6.5-15.4,6.7-29.9
	c0-1.7,0-3.3-0.1-4.8c-0.1-5.3-0.3-10.3,2.3-16.6c1.5-3.7,3.1-7.9,7.4-10.3c8.6-4.9,21.9,0.9,27.1,8.9c1.4,2.1,2.3,4.5,2.3,4.5
	c1.2,3.4,1.3,5.9,1.3,8.7c0,1.1,0,2.3,0.1,3.6c0.2,2.1,0.4,2.9,0.8,4.1c0.4,1.2,0.8,2.6,1.3,5.7c0.5,2.9,0.5,4.4,0.6,7.4
	c0.1,1.9,0.2,4.4,0.4,8.3c0.6,10,1.1,11.2,1.8,11.8c1.2,1.1,2.5,1.2,5.4,1.2c1.5,0,3.2,0.1,5.2,0.3c0.3,0,8.5,1.1,17.7,6.8
	C590.5,80,594.5,91,600,106.1c3.9,10.7,5.7,19.2,6.3,22c7.6,35.9,11.7,65.3,12.1,68.5c3.5,26,5.3,39,5.5,49.3
	c0.3,11.8-0.3,18.1-1.3,28.6c-0.5,5.5-1.2,12.3-1.8,21.7l0,0c-0.1,1.4-0.9,12.2-2.9,16.6c0,0.1-0.1,0.1-0.1,0.2c0,0.1,0,0.2,0.1,0.5
	l0,0.2c0.1,0.4,0.1,0.7,0.1,1.4l0,0.9c0,1.8,0,2.8,0.1,3.1c0.1,0.6,0.2,0.8,0.3,1c0.2,0.4,0.8,0.5,1.5,0.7l0.3,0.1
	c1.2,0.4,2.6,1.3,5.6,3.4c0.1,0.1,2.9,2,6.1,5.1c0.3,0.3,3.9,3.8,8.3,9H635c-3.2-3.6-5.6-6-5.8-6.2c-2.9-2.9-5.5-4.7-5.6-4.7
	c-2.2-1.6-3.9-2.7-4.5-2.8l-0.3-0.1c-1-0.3-2.6-0.7-3.6-2.3c-0.6-0.8-0.7-1.6-0.9-2.4c-0.1-0.5-0.2-1.1-0.2-3.9l0-0.9
	c0-0.3,0-0.5,0-0.6l0-0.1c-0.1-0.4-0.2-1.1-0.1-1.9c0.1-0.4,0.2-0.9,0.4-1.3c1.5-3.2,2.4-12.1,2.6-15.2c0.7-9.4,1.3-16.2,1.8-21.7
	c1-10.4,1.6-16.6,1.3-28.2c-0.2-10-2-23-5.5-48.8c-0.4-3.2-4.5-32.5-12.1-68.3c-0.6-2.7-2.4-11.1-6.1-21.5
	c-5.8-15.9-9.5-25.2-18.5-30.8c-8.5-5.3-16.1-6.3-16.1-6.3c-1.8-0.2-3.4-0.3-4.8-0.3c-3.1-0.1-5.7-0.1-8-2.3
	c-1.8-1.7-2.4-3.6-3-14.4c-0.2-3.9-0.3-6.5-0.4-8.4c-0.1-3-0.2-4.3-0.6-7c-0.5-2.8-0.8-4.1-1.2-5.2c-0.4-1.3-0.7-2.4-0.9-5
	c-0.1-1.4-0.1-2.6-0.2-3.8c-0.1-2.6-0.1-4.7-1.1-7.4c0,0-0.8-2.1-1.9-3.8c-4.2-6.5-15.4-11.4-21.9-7.7c-3.1,1.8-4.4,5-5.7,8.4
	c-2.2,5.6-2.1,10-2,15.1c0,1.6,0.1,3.2,0.1,5C509.8,45.8,507.4,56.5,502.8,65.2z M665.4,485.2L665.4,485.2
	c-0.1,1.5-1.3,23.1-6.1,40.4c-1.7,6.1-2.6,9.2-4.5,13.5c-0.9,1.9-1.6,3.3-2.2,4.4c-1,1.8-1.5,2.9-1.9,4.8c-0.4,2.2-0.2,3.4,0.4,6.6
	c0.3,1.5,0.6,3.4,1,5.9c1.4,9,2.1,13.9,0.6,17.6c-2,4.7-6.5,9.2-7.6,10.2l-0.5,0.6l-1,0c-48.8-0.8-58.5-0.4-59.8-0.1
	c-1.2,0.4-2.1,0-2.5-0.3c-1.8-1.4-1.1-4.1,2.6-10.8c3.4-6.2,7.5-9.9,11.7-13.8c3.8-3.5,7.7-7.1,11.9-13c2.3-3.2,3.5-5,4.6-7.9
	c1-2.7,1.1-4.1,1.5-10.3c0.1-2.1,0.3-4.8,0.5-8.2c0.4-5.3,0.9-11.6,1-13.4c-1.2-2.9-8.1-18.5-14.9-29.7c-3.7-6.1-10-13.2-22.6-27.3
	c-0.1-0.2-14.7-16.5-35.5-36.9c-0.1-0.1-0.2-0.2-0.4-0.3h5.6c19.5,19.3,33.1,34.5,33.2,34.6c12.7,14.3,19.1,21.5,23,27.9
	c7.2,11.8,14.4,28.6,15.3,30.5l0.3,0.4l-0.1,0.7c0,0.1-0.6,7.6-1,13.8c-0.2,3.4-0.4,6-0.5,8.1c-0.4,6.3-0.5,8.2-1.7,11.5
	c-1.3,3.4-2.9,5.6-5.1,8.7c-4.4,6.2-8.7,10.1-12.4,13.6c-4.2,3.9-7.8,7.2-10.9,12.8c-1.4,2.5-2.1,4.1-2.6,5.1
	c4.2-0.3,16.8-0.5,58.1,0.2c1.4-1.3,4.8-4.9,6.2-8.4c1.1-2.6,0.5-6.8-0.8-15.5c-0.4-2.5-0.7-4.3-1-5.8c-0.6-3.4-0.9-5.1-0.4-8
	c0.5-2.5,1.2-3.9,2.2-5.9c0.6-1.1,1.2-2.4,2.1-4.2c1.8-4,2.6-7,4.3-12.9c4.8-17.3,5.9-39.3,5.9-39.6c1-21.2,2-41.3-0.1-67.6h3.9
	C667.5,443.8,666.5,464,665.4,485.2z M367.1,417.4h5.9c-1.1,0.7-2.7,2.1-6.7,6.7c-4.7,5.4-8.1,9.3-13,16.2c-1,1.5-1.3,1.9-2,3
	c-0.7,1.2-1.8,2.9-4.7,7.1c-2.3,3.5-4,6-5.4,8.1c-2.9,4.2-4.2,6.1-6.3,9.8c-2.4,4.2-4.1,7-5.6,11.2c-1,2.6-1.4,4.2-1.8,6.1
	c-0.3,1.4-0.7,3-1.4,5.1c-1.4,4.4-2.6,7-4.2,10.2c-0.6,1.3-1.3,2.8-2.1,4.5c-3.1,6.8-4.7,11.9-7.3,20.3c-1.5,4.9-1.9,6.7-2.6,9.8
	c-0.7,3-1.6,7.2-4.1,16.4c-1.7,6.2-2.9,10.5-3.8,13.6c-1.7,5.9-2.1,7.3-1.9,9.1c0.1,0.6,0.5,5.6-1.7,9.1c-0.9,1.5-2.2,2.6-2.3,2.7
	l-0.6,0.5c-0.4,0.3-1,0.8-1.7,1.1c-2.1,1.2-9.2,1.6-21.8,1.6c-6.4,0-14.2-0.1-23.5-0.3c-6.6-0.1-12.8-0.2-13.9-0.1
	c-0.8,0.2-1.4-0.1-1.7-0.2c-1.1-0.7-2.5-1.5,2-10.2c2-3.9,3.9-6,6.2-8.5c1.4-1.5,3-3.3,4.9-5.8c1.8-2.3,3-4.3,5.4-8.4
	c14.5-23.8,22.1-53.1,22.1-53.4c1.1-4.3,2.5-9.6,3.7-16.9c0.8-5.1,1.2-8.7,1.5-11.9c0.5-4.7,0.8-8.3,2.4-13.9c1-3.6,1.8-5.1,2.7-7
	c0.8-1.7,1.9-3.8,3.6-8.4c3-8,4.3-14,7.1-25.8c0,0,0.1-0.5,0.3-1.5h4c-0.3,1.6-0.5,2.3-0.5,2.4c-2.8,12-4.2,18-7.2,26.3
	c-1.8,4.7-2.8,6.9-3.7,8.7c-0.9,1.8-1.5,3.1-2.5,6.4c-1.5,5.2-1.8,8.5-2.3,13.2c-0.3,3.3-0.7,6.9-1.6,12.2
	c-1.2,7.4-2.6,12.9-3.7,17.2c-0.1,0.3-7.8,30.2-22.6,54.4c-2.5,4.1-3.8,6.2-5.6,8.7c-2,2.6-3.6,4.5-5.1,6.1
	c-2.2,2.5-3.8,4.2-5.6,7.7c-0.9,1.7-1.6,3.4-2.1,4.7c0.2,0,0.5,0,0.7,0c2.2,0,5.7,0.1,11.5,0.2c13.1,0.2,40.3,0.7,43.4-0.8
	c0.8-0.5,1.6-1.1,1.6-1.1c0.1-0.1,1-0.9,1.6-1.9c1.3-2,1.2-5.4,1.1-6.6c-0.3-2.7,0.2-4.6,2-10.7c0.9-3.1,2.1-7.4,3.8-13.6
	c2.5-9.1,3.4-13.2,4-16.2c0.7-3.1,1.1-5.1,2.7-10.1c2.7-8.5,4.3-13.7,7.5-20.7c0.8-1.8,1.5-3.3,2.2-4.6c1.5-3.1,2.7-5.5,4-9.7
	c0.6-2,1-3.5,1.3-4.8c0.5-1.9,0.9-3.7,2-6.5c1.7-4.5,3.4-7.6,5.9-11.8c2.2-3.8,3.6-5.9,6.4-10c1.4-2,3.1-4.6,5.4-8
	c2.8-4.2,3.9-5.9,4.6-7.1c0.7-1.1,1-1.6,2.1-3.1c5-7.1,8.4-11,13.3-16.5C364.9,419.8,366.1,418.5,367.1,417.4z"/>
<path id="CAFÉBAR" class="st1" d="M382,490.8c-0.6,1.5-0.8,3.4-0.8,5.8c0,3.5,0.6,6.1,1.9,7.8c1.3,1.7,3.2,2.5,5.7,2.5
	c1.2,0,2.3-0.2,3.2-0.7c0.9-0.5,1.6-1.2,2.2-2c0.6-0.8,0.9-1.7,1.2-2.7h1.4c-0.1,0.9-0.3,1.7-0.8,2.5c-0.4,0.8-1,1.5-1.6,2.2
	c-0.7,0.6-1.5,1.2-2.4,1.5c-0.9,0.4-1.9,0.5-3.1,0.5c-2,0-3.6-0.4-5-1.3c-1.3-0.9-2.3-2.2-3-3.9c-0.7-1.7-1-3.9-1-6.4
	c0-2.5,0.3-4.7,1-6.4c0.7-1.7,1.7-3,3-3.9c1.4-0.9,3-1.4,5-1.4c1.5,0,2.8,0.3,4,1c1.1,0.6,2,1.5,2.7,2.5c0.7,1,1.1,2.1,1.2,3.3h-1.4
	c-0.2-1-0.6-1.9-1.2-2.7c-0.5-0.8-1.3-1.5-2.2-2c-0.9-0.5-2-0.8-3.2-0.8c-1.7,0-3.1,0.4-4.3,1.2C383.4,488.1,382.5,489.3,382,490.8z
	 M416.6,485.2l8.3,22.7h-1.3l-2.6-7.2h-10.4l-2.7,7.2h-1.3l8.3-22.7H416.6z M420.5,499.4l-4.7-12.9l-4.8,12.9H420.5z M436.4,507.9
	h1.4V497h10.7v-1.3h-10.7v-9.3h11.5v-1.3h-12.9V507.9z M471.7,478.7h-1.9l-3.2,4.6h1.2L471.7,478.7z M461.9,497.1h11v-1.3h-11v-9.3
	h11.8v-1.3h-13v22.7h13.5v-1.3l-12.2,0V497.1z M500.6,499.8c0.2,0.6,0.3,1.3,0.3,2c0,2-0.8,3.5-2.3,4.5c-1.5,1-3.6,1.5-6.3,1.5H486
	v-22.7h6.4c2.5,0,4.5,0.5,5.9,1.5c1.4,1,2.1,2.4,2.1,4.4c0,1.3-0.3,2.4-1,3.3c-0.7,0.9-1.8,1.6-3.4,2c0.8,0.1,1.6,0.4,2.2,0.7
	c0.6,0.3,1.2,0.7,1.6,1.1C500.1,498.7,500.4,499.2,500.6,499.8z M487.2,495.8h5.5c0.7,0,1.4-0.1,2.2-0.2c0.7-0.1,1.5-0.4,2.1-0.7
	s1.2-0.8,1.5-1.4c0.4-0.6,0.6-1.4,0.6-2.3c0-1.7-0.6-2.9-1.9-3.6c-1.3-0.7-2.9-1.1-5-1.1h-5V495.8z M499.7,502c0-1.2-0.3-2.2-1-2.9
	c-0.6-0.7-1.5-1.2-2.5-1.5c-1.1-0.3-2.2-0.5-3.5-0.5h-5.5v9.5h5.1c2.4,0,4.2-0.3,5.5-1C499.1,504.9,499.7,503.7,499.7,502z
	 M521.2,485.2l8.3,22.7h-1.3l-2.6-7.2h-10.4l-2.7,7.2h-1.3l8.3-22.7H521.2z M525,499.4l-4.7-12.9l-4.8,12.9H525z M551.1,496.8
	l4.7,11.1h-1.4l-4.6-10.8h-7.6v10.8h-1.2v-22.7h8c1.5,0,2.7,0.2,3.7,0.6c1,0.4,1.8,1,2.4,1.9c0.6,0.8,0.8,1.9,0.8,3.1
	c0,1.3-0.3,2.3-0.8,3.1c-0.5,0.8-1.1,1.5-1.9,1.9C552.5,496.3,551.8,496.6,551.1,496.8z M552.9,494.7c1.2-0.7,1.7-2,1.7-3.7
	c0-1.6-0.5-2.8-1.5-3.5c-1-0.7-2.4-1.1-4.2-1.1h-6.8v9.3h5.7C550,495.8,551.7,495.5,552.9,494.7z"/>
<path id="ERTOLDS" class="st1" d="M279.1,398.4l28.6,0v7.3h-36.8v-56h36.2l0,7.2h-27.8v17h24.8v7.1h-24.8V398.4z M364.8,380.9
	l10.8,24.8h-8.7l-9.9-23.4h-14.1v23.4h-8.3v-56h22.2c4.1,0,7.6,0.6,10.3,1.9c2.7,1.3,4.8,3.1,6.1,5.4c1.4,2.3,2,5.1,2,8.3
	c0,3-0.5,5.6-1.5,7.6c-1,2-2.3,3.6-3.9,4.9C368.2,379.2,366.5,380.2,364.8,380.9z M366.9,365.8c0-3.1-1-5.4-2.9-7
	c-2-1.6-4.6-2.4-7.9-2.4h-13.1v19.2h11.7c3.9,0,6.9-0.8,9.1-2.5C365.8,371.4,366.9,369,366.9,365.8z M397.5,357.3h17.7v48.4h8.4
	v-48.4h16.9v-7.5h-43V357.3z M508.1,362.3c2,4.3,3,9.5,3,15.6c0,6-1,11.2-3,15.5c-2,4.3-4.8,7.5-8.5,9.8c-3.7,2.3-8,3.4-13.1,3.4
	c-5.1,0-9.5-1.1-13.2-3.4c-3.7-2.3-6.5-5.5-8.5-9.8c-2-4.3-3-9.4-3-15.5c0-6.1,1-11.3,3-15.6c2-4.3,4.9-7.6,8.6-9.9
	c3.7-2.3,8.1-3.4,13.1-3.4c5,0,9.3,1.1,13,3.4C503.2,354.7,506.1,358,508.1,362.3z M502,378c0-5.1-0.6-9.2-1.8-12.5
	c-1.2-3.2-3-5.6-5.3-7.2c-2.3-1.5-5.1-2.3-8.3-2.3c-3.2,0-6,0.8-8.3,2.4c-2.3,1.5-4.1,3.9-5.4,7.2c-1.2,3.2-1.9,7.4-1.9,12.4
	c0,5,0.6,9,1.9,12.2c1.3,3.2,3.1,5.5,5.4,7c2.3,1.5,5.1,2.2,8.3,2.2c3.2,0,6-0.7,8.3-2.2c2.3-1.5,4.1-3.8,5.3-7
	C501.4,387,502,382.9,502,378z M546.1,349.7h-8.4l0,56H572v-7.3h-25.8V349.7z M638,362.6c2,4.1,3,9,3,14.9c0,6.1-1.1,11.2-3.2,15.4
	c-2.1,4.2-5.4,7.4-9.8,9.6c-4.4,2.2-10,3.3-16.7,3.3h-13.4v-56c0.2,0,0.8,0,1.8,0c1,0,2.3,0,3.7,0c1.5,0,2.9,0,4.4,0
	c1.5,0,2.9,0,4.1,0c6.8,0.1,12.4,1.2,16.7,3.4C632.9,355.4,636,358.5,638,362.6z M632.3,377.5c0-5.1-0.8-9.2-2.5-12.2
	c-1.7-3-4-5.2-7.1-6.5c-3.1-1.3-6.8-2-11.1-2h-5.3v42.1h5c4.2,0,7.9-0.7,11.1-2.1c3.1-1.4,5.6-3.6,7.3-6.7
	C631.4,386.9,632.3,382.7,632.3,377.5z M708.1,386.4c-0.3-1.7-1-3.2-2-4.7c-1-1.5-2.4-2.9-4.2-4.1c-1.8-1.2-4.2-2.1-7.2-2.7
	l-10.4-2.4c-3.5-0.9-5.8-1.9-7.1-3.1c-1.3-1.2-1.9-2.7-1.9-4.6c0-1.4,0.3-2.7,0.9-3.8c0.6-1.1,1.5-2,2.5-2.8
	c1.1-0.7,2.4-1.3,3.8-1.7c1.4-0.4,2.9-0.6,4.5-0.6c2.1,0,4.1,0.3,5.9,0.9c1.8,0.6,3.3,1.6,4.5,3c1.2,1.4,1.9,3.3,2.1,5.6h8.5
	c0-2.9-0.9-5.6-2.5-8.1c-1.6-2.5-3.9-4.5-7.1-6c-3.1-1.5-6.9-2.3-11.5-2.3c-3.9,0-7.4,0.7-10.5,2.1c-3.1,1.4-5.5,3.3-7.3,5.8
	c-1.8,2.5-2.6,5.4-2.6,8.7c0,4,1.2,7.1,3.6,9.5c2.4,2.4,5.7,4,9.8,4.9l10.6,2.4c2,0.5,3.7,1.1,5.2,1.8c1.4,0.8,2.6,1.7,3.4,2.8
	c0.8,1.1,1.2,2.5,1.2,4.1c0,1.8-0.6,3.4-1.7,4.6c-1.2,1.3-2.7,2.2-4.7,2.9c-2,0.7-4.2,1-6.7,1c-2.2,0-4.3-0.3-6.2-1
	c-1.9-0.7-3.5-1.7-4.8-3.1c-1.3-1.4-2.2-3.1-2.6-5.1h-8.6c0.3,2.7,1.2,5,2.5,7c1.4,2,3.1,3.6,5.1,5c2.1,1.3,4.4,2.3,6.9,3
	c2.5,0.7,5.1,1,7.8,1c4.4,0,8.3-0.7,11.5-2c3.2-1.4,5.7-3.2,7.4-5.6c1.7-2.3,2.6-4.9,2.6-7.8C708.7,389.6,708.5,388,708.1,386.4z"/>
<path id="B" class="st1" d="M271,376.2c1.3-0.1,1.9,0.9,1.8,3c-0.1,2.1-0.9,3.2-2.5,3.4c-1.5,0.2-2.9,1-4.1,2.2
	c-1.2,1.2-1.8,2.5-1.8,3.9c0.4,12.7-1.3,25-4.9,36.8c-3.6,11.8-8.4,23.1-14.5,34.1c-12,22.7-26.5,42.9-43.6,60.6
	c-17.1,17.7-37.1,32.6-60,44.8c-12.6,6.6-25.6,11.5-39,14.8c-13.3,3.3-27.2,4.5-41.5,3.7c-12-0.7-23.2-3.9-33.7-9.6
	c-12.5-7.4-20.7-17.1-24.7-29c-4-11.9-3.2-24.5,2.3-37.9c5.8-13,14.9-25.2,27.3-36.4c12.4-11.2,26.9-21.6,43.4-31
	c16.5-9.4,33.7-17.7,51.6-24.9c17.9-7.2,35.1-13.4,51.8-18.5c16.6-5.1,31.4-9,44.3-11.6c3.5-0.8,7-1.6,10.4-2.3
	c3.7-0.6,7.3-1.4,10.8-2.1c3-0.5,4.1-2.2,3.2-4.9c-3.1-12.6-9.1-23.5-18.2-32.5c-6.6-6.4-13.7-11.9-21.4-16.3
	c-7.7-4.5-15.8-8.2-24.3-11.3c-25.6-9.1-52.1-14.2-79.5-15.3c-1.9-0.2-3.8-0.3-5.7-0.3c-2.2,0.2-3.4,1.4-3.5,3.6
	c-0.3,2.6-0.5,5.2-0.5,7.9c-0.1,20.6-0.2,41.3-0.2,61.9c-0.1,9.1-0.2,18.2-0.2,27.4c0,0.7,0,1.2,0,1.7c0,1.3,0,2.6,0,4
	c-0.7,5.9-3.8,8-9.2,6.2c-2.2-0.7-3.3-2.1-3.4-4.2c-0.2-3-0.3-6-0.2-9.1c-0.1-18.6-0.2-37.2-0.2-55.7c0-9.4,0-18.7,0-27.9
	c0-0.8,0-1.5,0-2.3c0-2.2-0.1-4.5-0.2-6.9c0-2.5-0.4-4.2-1.1-4.9c-0.8-0.8-2.3-1.2-4.6-1.4c-1.1,0-2.1,0-3,0c-2.5-0.2-5-0.4-7.3-0.6
	c-2.1-0.2-3.5-1.3-4.3-3.3c-0.7-2.5,0-4.5,2-6.2c2.6-2.1,5.4-4.1,8.2-6.1c1.2-0.8,2.3-1.4,3.2-2c2.2-1.4,3.8-2.6,4.8-3.5
	c1-0.9,1.6-2,1.8-3.1c0.2-1.2,0.3-3,0.3-5.5c-0.2-1.4-0.3-3.1-0.3-5.1c0.2-14.9,0.3-29.8,0.3-44.8c0-8.2,0-16.6,0-25
	c0-0.1,0-0.3,0-0.6c0-2.9,0.1-5.7,0.4-8.4c0.2-3.6,2.3-5.3,6.3-5.2c3.8-0.1,6,1.5,6.5,4.9c0.2,3.5,0.4,7,0.4,10.5c0,9,0,17.9,0,26.8
	c0,10.9,0.1,21.8,0.3,32.5c-0.2,0.8-0.3,1.5-0.3,2.2c-0.2,3.1,0.2,6.5,1.4,10.5c8.7-5,19.1-11.3,31.4-19
	c12.3-7.7,24.8-15.9,37.5-24.7c12.8-8.8,24.1-17.6,33.9-26.5c9.9-8.8,16.7-17,20.5-24.4c4.1-8.5,2.2-15.5-5.5-21
	c-9.6-6.5-21.9-10-37.1-10.6c-15.2-0.6-31.2,1-48,4.8c-16.8,3.8-32.5,9.1-47,16c-14.5,6.8-25.9,14.5-34.2,23c-2.6,2.8-5,6.1-7.2,10
	c-2.1,3.9-3.8,7.7-5,11.5c-0.9,2.4-2.6,3.8-5.3,4.2c-2.6,0.4-4.9-0.4-6.7-2.2c-0.9-1.3-1.2-2.7-0.8-4.3c1.2-4.5,3.2-8.6,6.2-12.3
	c9.3-11.9,22.6-22.4,39.7-31.3c17.2-8.9,35.8-15.7,55.8-20.3c20-4.6,39.1-6.5,57.1-5.7c18,0.8,32.6,4.9,43.6,12.3
	c11.3,7.7,13.7,17.6,7.3,29.7c-3.3,6-8.1,12.2-14.5,18.4c-6.4,6.2-13.1,12.1-20.3,17.7c-7.2,5.6-13.6,10.4-19.1,14.5
	c-10.1,7.3-20.5,14.4-31.1,21.2c-10.6,6.8-21.4,13.4-32.2,19.8c-0.2,0.1-0.5,0.3-0.8,0.5c-5.4,3.1-10.7,6.2-15.8,9.5
	c-3.6,2.8-4.7,6.4-3.3,11c0.1,0.4,0.4,0.8,0.9,1.3c0.5,0.5,1,0.7,1.5,0.7c2.1,0.4,4.3,0.6,6.3,0.6c0.1,0,0.3,0,0.5,0
	c28.4,0.8,56.1,5.6,83.1,14.6c14.9,4.7,28.8,11.6,41.8,20.7c7.8,5.5,14.4,11.8,19.8,18.9c5.4,7.1,9.5,15.3,12.1,24.5
	c0.8,3,1.8,4.8,2.9,5.5C265.1,376.7,267.4,376.7,271,376.2z M249.7,398.7c0.5-5.4,0.1-8.7-1.2-9.9c-1.3-1.2-4.7-1.1-10.1,0.2
	c-12.8,2.6-27.4,6.3-43.5,11.1c-16.2,4.8-32.8,10.6-49.9,17.4c-17.1,6.8-33.5,14.7-49.3,23.6C80,449.9,66.1,459.7,54,470.6
	c-12,10.8-21.1,22.8-27.1,35.7c-4.4,9.9-6.3,19.2-6,27.9c0.4,8.8,2.6,16.3,6.7,22.7c4.1,6.4,9.5,10.9,16.2,13.5
	c8.5,3.3,17.4,5.1,26.6,5.4c0.6,0,1.2-0.1,1.8-0.2c1.3-0.2,2.6-0.3,4-0.3c17.3-1.7,33.7-6.4,49.1-14.2
	c28.1-13.9,51.8-31.9,71.1-53.8c19.3-22,34.6-47.5,46-76.5C246.3,420.4,248.8,409.7,249.7,398.7z"/>
</svg>
